<svg xmlns="http://www.w3.org/2000/svg" viewBox="0 0 800 600" width="800" height="600"><g transform="translate(32.0 188.0) rotate(0.0 361.5 38.0) scale(0.9953193832599119 0.989068193649141)"><svg width="726.4" height="76.84" viewBox="0 0 726.4 76.84"><g fill="#eff0f2"><path d="M118.52 57.45c0 7.05-1.86 13.67-5.11 19.39H2.18A31.317 31.317 0 0 1 0 65.31c0-17.37 14.07-31.45 31.44-31.45 5.07 0 9.85 1.21 14.08 3.33 6.88-11.41 19.39-19.05 33.69-19.05 21.71 0 39.31 17.6 39.31 39.31zM726.4 76.84H155.24c.01-1.56.2-3.15.56-4.73 2.49-10.88 12.55-18.08 23.35-17.29.05-.23.09-.45.14-.68 3.65-15.95 19.53-25.92 35.48-22.27 11.81 2.7 20.33 12.11 22.49 23.28 6.51-5.76 15.6-8.41 24.72-6.32 6.71 1.53 12.29 5.37 16.12 10.48 2.1-1.33 4.43-2.32 6.88-2.9 3.84-13.03 15.89-22.55 30.17-22.55 5.06 0 9.84 1.21 14.08 3.33 6.88-11.41 19.39-19.05 33.69-19.05 10.8 0 20.59 4.36 27.69 11.41 7.61-10.19 19.76-16.78 33.46-16.78 9.09 0 17.49 2.91 24.35 7.85C452.83 8.59 464.39 0 477.95 0c14.87 0 27.32 10.32 30.6 24.18 10.91-17.66 32.19-27.3 53.56-22.41 19.88 4.55 34.24 20.39 37.87 39.21 10.96-9.7 26.28-14.16 41.64-10.65 11.3 2.59 20.7 9.05 27.13 17.66 8.18-5.2 18.35-7.25 28.55-4.92 16.45 3.76 27.89 17.78 29.1 33.77z"/></g></svg></g><g transform="translate(78.0 195.0) rotate(0.0 101.5 58.5) scale(0.9960794704586381 0.9920298456842462)"><svg width="203.799" height="117.94" viewBox="0 0 203.799 117.94"><g fill="#BBBDC7"><path d="M27.768 5.2h2v112.24h-2zm29.253 0h2v112.24h-2zm29.252 0h2v112.24h-2zm29.253 0h2v112.24h-2zm29.252 0h2v112.24h-2zm29.253 0h2v112.24h-2z"/><path d="M4.771 105.698h194.256v2H4.771zm0-29.253h194.256v2H4.771zm0-29.252h194.256v2H4.771zm0-29.253h194.256v2H4.771z"/></g><path d="M203.299 117.44h-9V9.5H9.5v107.94h-9V.5h202.799z" fill="#BBBDC7"/><path d="M203.299 117.94h-9a.5.5 0 0 1-.5-.5V10H10v107.44a.5.5 0 0 1-.5.5h-9a.5.5 0 0 1-.5-.5V.5A.5.5 0 0 1 .5 0h202.799a.5.5 0 0 1 .5.5v116.94a.5.5 0 0 1-.5.5zm-8.5-1h8V1H1v115.94h8V9.5a.5.5 0 0 1 .5-.5h184.799a.5.5 0 0 1 .5.5z" fill="#BBBDC7"/></svg></g><g transform="translate(168.0 500.0) rotate(0.0 88.0 6.0) scale(0.6150964233540928 0.6312799200378768)"><svg width="286.134" height="19.009" viewBox="0 0 286.134 19.009"><path d="M286.134 0c0 10.498-8.97 19.009-20.036 19.009H20.036C8.97 19.009 0 10.498 0 0z" fill="#eff0f2"/></svg></g><g transform="translate(198.0 148.0) rotate(0.0 91.5 177.5) scale(0.9978189749182115 0.9995354271958103)"><svg width="183.4" height="355.165" viewBox="0 0 183.4 355.165"><clipPath id="a"><path d="m33.719 126.178 10.808-36.161a49.876 49.876 0 0 1 7.6-15.257l9.037-12.294A49.259 49.259 0 0 1 76.91 48.593l2.355-1.31a10.163 10.163 0 0 1 7.702-.916c9.693 2.747 16.301 10.471 19.479 20.65 3.948 12.645 4.841 28.139 1.48 29.039-6.072 1.627-22.909 45.176-22.909 45.176l-44.801-5.193c-4.762-.552-7.869-5.269-6.497-9.861z"/></clipPath><path d="m76.154 140.235 4.507 17.383 10.672 89.917s-29.608 5.576-29.695 5.056l-28.316-92.575c-1.727-5.648 1.797-11.553 7.587-12.714z" fill="#c78982"/><path d="m37.586 270.403 21.993 21.161 30.878-39.99c2.525-4.222.697-9.7-3.857-11.56l-16.294-6.654-28.674 31.531c-1.697 1.722-3.063 3.584-4.046 5.512z" fill="#c78982"/><path d="m90.455 251.573-26.94 34.89-22.47 29.1-9.17 12.21-8.18 10.89-1.04 1.38-.36.49c-.17-.08-1.52-.64-3.39-1.4-.73-.3-1.53-.63-2.38-.97-1.5-.62-3.12-1.28-4.66-1.9-3.48-1.42-6.49-2.63-6.49-2.63l.13-.25 2.16-4.24 1.42-2.79 2.88-5.66.9-1.75 3.01-5.92 5.52-10.83 16.19-31.79c.59-1.15 1.31-2.28 2.16-3.37.58-.73 1.21-1.45 1.89-2.14l17.78-19.56-26.09-85.32c-1.73-5.64 1.79-11.55 7.58-12.71l35.25-7.07 4.51 17.39 10.29 86.7c.95 2.26.879 4.94-.5 7.25z" fill="#1d2445" opacity=".1"/><path d="m63.514 286.463-22.47 29.1-9.17 12.21-8.18 10.89-1.04 1.38-.36.49c-.17-.08-1.52-.64-3.39-1.4-.73-.3-1.53-.63-2.38-.97-1.5-.62-3.12-1.28-4.66-1.9-3.48-1.42-6.49-2.63-6.49-2.63l.13-.25 2.16-4.24 1.42-2.79 2.88-5.66.9-1.75 3.01-5.92 5.52-10.83 16.19-31.79c.59-1.15 1.31-2.28 2.16-3.37zM34.238 124.442l4.488-15.015 4.381-4.622-2.009-3.316 4.039-13.514a37.58 37.58 0 0 1 5.728-11.5l2.955-1.021 2.663-6.623 4.816-6.552a48.19 48.19 0 0 1 15.407-13.574L79 47.429c2.515-1.398 5.493-1.794 8.253-.979 9.536 2.818 16.045 10.489 19.191 20.566 3.948 12.645 4.841 28.139 1.48 29.039-6.072 1.627-22.909 45.176-22.909 45.176l-43.002-4.984c-5.698-.66-9.418-6.308-7.775-11.805z" fill="#013b84"/><path d="m55.248 142.949 12.506 5.371c.569.244.983.75 1.111 1.356l1.32 6.273a1.903 1.903 0 0 1-.627 1.839l-6.161 5.255a.884.884 0 0 1-1.421-.421l-.276-.933a3.29 3.29 0 0 1 .839-3.272l2.203-2.182-.936-4.035-2.518-.88-5.208 4.728a4.114 4.114 0 0 1-3.581.987l-12.502-2.526 3.22-12.424 10.702.554c.457.024.908.129 1.329.31z" fill="#c78982"/><path d="M100.35 17.586c.013-5.587 7.302-10.1 16.282-10.079 7.66.018 14.075 3.329 15.787 7.77.443 1.15-.445 2.382-1.677 2.379z" fill="#002652"/><path d="M101.598 9.687c.011-4.757 6.217-8.598 13.861-8.581 6.521.015 11.983 2.834 13.44 6.615.377.979-.379 2.028-1.428 2.025z" fill="#002652"/><path d="m122.328 21.092.074 20.993c-.068 2.482-2.535 4.178-4.877 3.352l-21.716-7.664z" fill="#c78982"/><path d="m120.588 33.843 3.718-.081c1.549-.034 2.316-1.895 1.24-3.01l-4.707-4.878zm-10.52-25.862-.478-.013a3.66 3.66 0 0 0-3.759 3.559l-.348 12.706 16.943.464.097-3.559c.194-7.073-5.382-12.964-12.455-13.157z" fill="#c78982"/><path d="m98.411 20.485 18.001 8.236-16.61 36.304a1 1 0 0 1-1.753.122L86.041 46.313l5.353-10.494z" fill="#c78982"/><path d="m122.16 35.778-10.621-.291.37-13.502 10.62.292z" fill="#c78982"/><path d="m105.559 5.338-5.029-.012c-5.496-.013-9.961 4.432-9.974 9.928l-.057 24.877 31.985.073.041-17.823c.021-9.39-7.575-17.021-16.966-17.043z" fill="#c78982"/><path d="m122.292 24.962-2.434-.006a1.065 1.065 0 0 0-.755.311l-1.015 1.011c-.673.67-.2 1.82.75 1.822l3.532.008" fill="#1d2445" opacity=".1"/><path d="m109.077 28.645-.009 3.769a8.697 8.697 0 0 0 5.241 8.002 4.935 4.935 0 0 1 4.946-4.924l3.239.007-.016 6.87c-.006 2.504-2.531 4.218-4.86 3.297l-9.231-3.648a3.555 3.555 0 0 1-2.248-3.313l.03-12.981a2.915 2.915 0 0 1 2.908 2.921z" fill="#002652"/><path d="m118.762 41.116 2.446.57a1.039 1.039 0 0 0 1.275-1.009l.007-2.959-2.345-.005a2.275 2.275 0 0 0-2.28 2.269 1.16 1.16 0 0 0 .897 1.134z" fill="#c78982"/><path d="m93.304 37.706 7.892 3.528.077-33.444a3.553 3.553 0 0 0-3.546-3.562l-1.599-.004c-7.616-.017-13.459 6.752-12.33 14.284l1.249 8.329a14.218 14.218 0 0 0 8.257 10.869z" fill="#002652"/><path d="m93.973 8.705 12.438.029-.061 26.629a6.224 6.224 0 0 1-6.239 6.21l-6.214-.014z" fill="#002652"/><path d="m102.141 6.395 14.645.034-.019 8.351a7.108 7.108 0 0 1-7.124 7.092l-7.537-.017zm-6.076 19.71c.013-5.587-7.256-10.133-16.235-10.154-7.66-.018-14.09 3.264-15.822 7.697-.448 1.148.434 2.384 1.666 2.387z" fill="#002652"/><path d="M102.091 33.226c.012-5.195-6.746-9.421-15.094-9.44-7.122-.016-13.1 3.035-14.711 7.156-.417 1.067.404 2.216 1.549 2.219z" fill="#002652"/><path d="M98.162 37.482c4.333.01 5.677-5.823 1.795-7.747-2.114-1.048-4.677-1.665-7.441-1.671-6.191-.014-11.39 3.038-12.791 7.161-.363 1.067.35 2.216 1.346 2.219z" fill="#002652"/><path d="M100.38 41.602c3.192.007 4.182-4.29 1.322-5.708-1.557-.772-3.446-1.226-5.482-1.231-4.561-.01-8.391 2.239-9.423 5.275-.267.786.258 1.633.992 1.634zm-.029-24.728c.013-5.587-7.256-10.133-16.235-10.154-7.66-.018-14.09 3.264-15.822 7.697-.448 1.148.434 2.384 1.666 2.387z" fill="#002652"/><path d="M114.227 10.154C114.24 4.567 106.971.021 97.992 0c-7.66-.018-14.09 3.264-15.822 7.697-.448 1.148.434 2.384 1.666 2.387z" fill="#002652"/><path d="m82.347 146.921 7.668 83.154-37.614 2.135-10.879-76.852z" fill="#016eea"/><g fill="#c78982"><path d="M183.349 140.441c-.473.896-1.645 1.376-2.856 1.081l-17.996-5.94-.792-6.198 21.284 10.205c.333.13.497.505.367.837-.003.005-.006.01-.007.015z"/><path d="M179.935 141.631c-.335.957-1.422 1.605-2.664 1.492l-18.678-3.207-1.703-6.012 22.563 6.939a.645.645 0 0 1 .486.774l-.004.014z"/><path d="M176.277 142.652c-.227.988-1.236 1.752-2.483 1.777l-18.918-1.123-2.357-5.788 23.191 4.403c.355.04.609.361.569.715-.001.006 0 .011-.002.016z"/><path d="M171.137 143.626c-.15.956-1.088 1.722-2.315 1.785l-13.831-.361c-2.998-.079-5.758-1.823-7.096-4.486l-.567-1.129 23.195 3.506a.661.661 0 0 1 .615.669l-.001.016z"/><path d="m153.526 144.06 5.221-7.316c1.152-3.229-.549-6.814-3.778-7.965l-4.911-1.751c-3.229-1.152-11.577.043-12.73 3.272l7.16 9.396a8.987 8.987 0 0 0 3.253 2.652l4.333 2.085a1.165 1.165 0 0 0 1.452-.373z"/><path d="m145.928 126.804 15.754 5.618-1.178-.49a2.317 2.317 0 0 1-1.073-3.355l.011-.042a2.779 2.779 0 0 1 1.913-1.266l3.784-.586a5.359 5.359 0 0 0 2.614-1.145c.5-.433.911-.944 1.103-1.483a1.86 1.86 0 0 0 .105-.878c-.007-.039-.014-.08-.025-.117a.915.915 0 0 0-1.136-.618l-11.561 2.241-2.807-.085a10.857 10.857 0 0 0-4.994 1.024l-2.344 1.111c-.055.028-.109.05-.166.071z"/><path d="M152.069 144.019c4.994 1.885 10.339-.444 11.938-5.201 1.6-4.757 1.186-7.838-6.145-12.027-4.634-2.648-10.339.444-11.938 5.201-1.6 4.757 1.151 10.143 6.145 12.027z"/><path d="M152.036 130.488 119.311 110.9l-16.006 8.611 3.516 4.945a20.007 20.007 0 0 0 7.013 3.962l33.153 12.204z"/><path d="M115.385 125.25c-2.904 2.336-7.403 1.377-10.05-2.142L75.712 83.724c-4.853-6.452-4.471-15.155.853-19.439l1.451-1.167c3.322-2.672 8.469-1.575 11.495 2.45l37.721 50.15zm-44.342 17.501 10.703 13.131-18.554 95.294c-.797 4.094-4.972 6.587-8.953 5.345-4.308-1.343-9.68-3.129-13.867-4.541a10.063 10.063 0 0 1-6.846-9.471l-.67-98.302z"/><path d="M36.344 278.033v-.01l-2.83-34.49c-.16-2.03.61-4.02 2.1-5.41l11.33-10.58c4.34-2.31 9.73-.21 11.36 4.43l10.3 46.05s-1.057 2.155-4.133 2.347c-6.309.394-16.902.945-22.811.638-2.575-.135-5.261-2.432-5.316-2.975z"/></g><path d="m82.905 150.123-13.85 76.214-38.5-2.624 1.071-69.529a5.96 5.96 0 0 1 6.197-5.864z" fill="#016eea"/><path d="m91.155 115.123-6.112 31.308.622 26.74-54.185-7.462.231-23.207a70.571 70.571 0 0 1 2.999-19.665l5.431-18.021zM59.014 72.56l23.68-17.31 25.965 35.522-23.68 17.309z" fill="#013b84"/><path d="m68.655 224.623 7.118-37.488a4.001 4.001 0 0 1 2.238-2.879l5.644-2.634z" fill="#1d2445" opacity=".1"/><g clip-path="url(#a)"><path d="M36.574 109.1c-8.307-2.678-8.714-13.945-4.8-26.253 4.071-12.626 11.165-21.254 19.472-18.575 8.554 2.758 8.628 14.213 4.794 26.104-4.308 13.361-11.307 21.355-19.417 18.74zm2.625-7.635c2.918.941 6.094-3.493 9.282-13.379 3.102-9.62 3.206-15.192.189-16.164-2.819-.909-6.171 3.394-9.337 13.215-3.28 10.004-3.051 15.388-.183 16.313z" fill="#2888ff"/></g><path d="M83.165 341.253c-.17.08-1.46.75-3.24 1.7-.7.37-1.46.78-2.27 1.21-1.43.76-2.98 1.59-4.44 2.37-3.31 1.78-6.17 3.31-6.17 3.31l-.11-.25-1.88-4.37-1.24-2.88-2.51-5.83-.77-1.81-2.63-6.1-4.8-11.16-15.11-32.78c-.85-1.98-1.41-4.23-1.65-6.63v-.01h32.26l7.34 32.85 3.53 14.85 3.15 13.25.4 1.68z" fill="#013b84"/><path d="m100.178 352.212 4.399-2.62c1.213-.723 2.057-1.958 2.244-3.284.274-1.949-.927-3.602-2.818-3.878l-8.342-1.216c-5.272-.769-9.621-3.836-11.919-8.407l-2.751-5.472-3.66 2.059c-.882.496-1.337 1.523-1.057 2.387l.801 2.472-5.018 1.97c-3.399 1.334-7.004.72-9.286-1.583l-3.524-3.555c-.617-.623-1.795-.156-1.976.784l-3.079 15.996.173 1.501a2.59 2.59 0 0 0 2.54 2.293z" fill="#2888ff"/><path d="m53.811 348.917.523 1.583c.942 2.848 3.552 4.665 6.7 4.665h33.473a4.15 4.15 0 0 0 1.905-.481l6.187-3.226c.464-.242.292-.944-.231-.944h-25.52c-.488 0-.93-.191-1.232-.531-1.516-1.71-3.736-2.668-6.188-2.668H55.053c-.825-.001-1.489.857-1.242 1.602z" fill="#016eea"/><path d="m.647 331.119 10.92 10.406 13.82 13.171c.818.028 5.544-.293 5.544-.293l4.199-13.537-.785-.458a7.493 7.493 0 0 1-3.709-6.828l.565-4.794-2.409-.495a1.79 1.79 0 0 0-2.058 1.2l-.802 2.475-4.596-1.705a8.675 8.675 0 0 1-5.623-7.284l-.504-5.103c-.087-.891-1.17-1.289-1.815-.665l-6.218 6.035-4.377 4.251-.378.366z" fill="#2888ff"/><path d="m11.996 337.186 2.423 10.081 17.358 4.527 12.045.246h.029l.187-.121 2.322-1.484 1.358-.87a3.738 3.738 0 0 0-1.457-6.848l-8.118-1.224a17.895 17.895 0 0 1-7.145-2.73 17.899 17.899 0 0 1-5.301-5.39l-6.551-3.308a1.786 1.786 0 0 0-.707 2.273l1.076 2.368-4.541 1.846a8.478 8.478 0 0 1-2.978.634z" fill="#2888ff"/><path d="m21.742 350.248-.034 4.441 16.584.127a3.592 3.592 0 0 0 1.759-.444l5.933-3.282c.315-.174.194-.654-.167-.657z" fill="#016eea"/><path d="m2.479 337.431 10.431 9.688 7.978 7.413c1.479.054 3.05.109 4.497.166.818.028 1.594.059 2.298.085l-11.578-10.759a1.802 1.802 0 0 1-.57-1.22 8.988 8.988 0 0 0-2.857-6.128l-2.932-2.726-6.948-6.453-.174-.162a1.075 1.075 0 0 0-1.753.462l-.506 1.59a7.77 7.77 0 0 0 2.114 8.044z" fill="#016eea"/></svg></g><g transform="translate(394.0 497.0) rotate(0.0 102.5 7.0) scale(0.7164475385658468 0.7364932400441896)"><svg width="286.134" height="19.009" viewBox="0 0 286.134 19.009"><path d="M286.134 0c0 10.498-8.97 19.009-20.036 19.009H20.036C8.97 19.009 0 10.498 0 0z" fill="#eff0f2"/></svg></g><g transform="translate(394.0 148.0) rotate(0.0 116.5 177.0) scale(0.9996181715996894 0.9977705184178854)"><svg width="233.089" height="354.791" viewBox="0 0 233.089 354.791"><path d="M164.924 262.493c.01 2.05-23.59-3.99-23.59-3.99l-1.71-3 3.05-31.14 25.2 1.35.04 29.79z" fill="#99644c"/><path d="M167.924 262.493c.01 2.05-.33 4.09-.98 6.03l-10.86 32.05-3.69 10.91-2.02 5.97-.6 1.76-1.93 5.71-.95 2.81-1.45 4.28-.08.24s-17.91 2.09-18.08 2.09l3.13-17.05 2.04-13.44 6.88-45.35.29-3h28.29z" fill="#2888ff"/><path d="m170.878 125.832 1.366 2.402a30.06 30.06 0 0 1 2.824 22.932l-1.333 4.779-5.893 77.026s-25.304-3.292-25.346-3.777l-8.368-99.116z" fill="#99644c"/><path d="m144.472 140.338.608 2.696a30.053 30.053 0 0 1-3.973 22.759l-2.668 4.186-27.045 71.174-21.823.801-1.34-9.048a10.073 10.073 0 0 1 .099-3.51l2.981-14.446 4.001-4.848 12.765-76.399z" fill="#99644c"/><path d="m96.094 265.023-4.84-7.7-2.88-26.39 24.94-3.85 6.38 30.24-1.79 5.75c.42 2.01-21.81 1.95-21.81 1.95z" fill="#99644c"/><path d="M122.827 349.627h22.695l1.329-3.705a18.706 18.706 0 0 0 .851-9.351l-.682-4.155-9.772-5.508-9.832 5.508-4.914 7.769a7.444 7.444 0 0 0-1.151 4.081l.056 3.96a1.42 1.42 0 0 0 1.42 1.401z" fill="#002652"/><path d="M125.345 354.791h16.6c.935 0 1.767-.51 2.068-1.27l1.68-4.238h-24.096l1.68 4.238c.301.759 1.133 1.27 2.068 1.27z" fill="#2888ff"/><path d="M133.725 324.782h10.026c1.034 0 1.703.838 1.496 1.872l-1.945 9.682c-.208 1.034-1.214 1.872-2.248 1.872h-10.027c-1.034 0-1.703-.838-1.496-1.872l1.945-9.682c.208-1.034 1.215-1.872 2.249-1.872z" fill="#002652"/><path d="M135.366 346.529h-3.442a2.59 2.59 0 0 0-2.582 2.582 2.59 2.59 0 0 0 2.582 2.582h3.442a2.59 2.59 0 0 0 2.582-2.582 2.59 2.59 0 0 0-2.582-2.582z" fill="#2888ff"/><g fill="#99644c"><path d="M.104 147.772c.625.798 1.863 1.062 3.003.555l16.653-9.047-.323-6.24L.308 146.869a.646.646 0 0 0-.212.889l.008.014z"/><path d="M3.676 148.336c.5.882 1.684 1.327 2.887.994l17.81-6.479.606-6.219L4.01 147.473a.646.646 0 0 0-.334.863z"/><path d="M7.457 148.69c.399.932 1.528 1.504 2.76 1.307l18.417-4.471 1.289-6.115-22.037 8.459a.646.646 0 0 0-.429.82z"/><path d="M12.688 148.734c.318.914 1.377 1.501 2.596 1.345l13.546-2.816c2.936-.611 5.342-2.819 6.185-5.677l.357-1.212-22.202 7.576a.661.661 0 0 0-.482.784z"/><path d="m30.096 146.028-6.439-6.271c-1.708-2.973-.672-6.803 2.3-8.51l4.521-2.597c2.973-1.708 11.4-2.018 13.109.955l-5.374 10.52a8.988 8.988 0 0 1-2.729 3.188l-3.893 2.822a1.164 1.164 0 0 1-1.495-.107z"/><path d="M34.503 127.695 20 136.026l1.072-.692a2.317 2.317 0 0 0 .459-3.492l-.018-.04a2.772 2.772 0 0 0-2.107-.905l-3.828.096a5.368 5.368 0 0 1-2.776-.661c-.569-.337-1.065-.767-1.349-1.263a1.85 1.85 0 0 1-.259-.845c0-.04-.001-.081.004-.12a.914.914 0 0 1 1.008-.81l11.775.148 2.747-.583a10.83 10.83 0 0 1 5.096.12l2.504.677c.058.016.114.029.175.039z"/><path d="M31.523 145.729c-4.579 2.743-10.252 1.403-12.673-2.994s-2.561-7.502 3.908-12.929c4.089-3.43 10.252-1.403 12.673 2.994 2.42 4.397.67 10.186-3.908 12.929zM81.79 57.85 62.526 97.483l-4.75 10.011 13.269 11.992 31.11-53.008z"/></g><path d="M100.948 68.406 94.844 92.03 68.45 84.507l12.308-25.712c1.166-2.435 4.296-3.148 6.401-1.458z" fill="#2888ff"/><path d="m173.116 136.147 3.055 81.459h-37.675l-6.618-75.349z" fill="#016eea"/><path d="m147.04 150.049-20.274 78.333-35.496-13.246 15.016-73.863z" fill="#016eea"/><path d="m103.127 157.059 65.046-13.76-7.589-85.966-72.457 8.228z" fill="#2888ff"/><path d="m29.148 132.407 28.718-25.097 11.817 3.847c2.774.903 3.957 4.175 2.402 6.642l-1.678 2.664c-1.695 2.117-5.855 4.83-8.247 6.107l-26.24 14.911z" fill="#99644c"/><path d="m121.164 269.183-4.06 33.59-1.38 11.44-.75 6.25-.23 1.85-.72 5.98-.36 2.95-.53 4.48-.04.26s-3 .45-6.47.98c-1.54.24-3.16.48-4.66.72-.83.12-1.61.24-2.32.35h-3.48l-.09-1.53-.67-12.1-.76-13.58-2.55-45.8-.84-7.7h28.44l1.21 5.75c.42 2.01.51 4.07.26 6.11z" fill="#2888ff"/><path d="m72.657 349.953-4.399-2.62c-1.213-.723-2.057-1.958-2.244-3.284-.274-1.949.927-3.602 2.818-3.878l8.342-1.216c5.272-.769 9.621-3.836 11.919-8.407l2.751-5.472 3.66 2.059c.882.496 1.337 1.523 1.057 2.387l-.801 2.472 5.018 1.97c3.399 1.334 7.004.72 9.286-1.583l3.524-3.555c.617-.623 1.795-.156 1.976.784l3.079 15.996-.434 3.765z" fill="#002652"/><path d="m120.025 346.658-.523 1.583c-.942 2.848-3.552 4.665-6.7 4.665H79.329a4.15 4.15 0 0 1-1.905-.481l-7.382-3.85c-.158-.082-.099-.32.079-.32h26.868c.488 0 .93-.191 1.232-.531 1.516-1.71 3.736-2.667 6.188-2.667h14.375c.824-.002 1.488.856 1.241 1.601zM93.646 48.373l56.602-11.026a18 18 0 0 1 17.157 6.01l10.18 11.976-104 23 6.552-18.346a17.997 17.997 0 0 1 13.509-11.614z" fill="#2888ff"/><path d="M111.967 19.305 97.412 34.25l29.579 28.81c.718.699 1.923.181 1.908-.822l-.404-26.834zM96.781 30.281l-3.919-.043c-1.633-.017-2.463-1.971-1.341-3.158l4.904-5.194z" fill="#99644c"/><path d="m112.291.071 5.299-.07c5.791-.076 10.548 4.557 10.625 10.347l.346 26.215-33.705.444-.248-18.782C94.477 8.33 102.395.201 112.291.071z" fill="#99644c"/><path d="m103.917 40.965 3.378-1.443a1.873 1.873 0 0 1 2.609 1.697l.062 4.769M94.76 20.943l2.565-.034c.298-.004.586.111.799.318l1.082 1.054c.717.699.232 1.915-.769 1.928l-3.103.041" fill="#1d2445" opacity=".1"/><path d="m108.851 24.672.052 3.971a9.166 9.166 0 0 1-5.431 8.493 5.2 5.2 0 0 0-5.269-5.132l-3.413.045.095 7.24c.035 2.639 2.715 4.415 5.159 3.419l9.686-3.95a3.744 3.744 0 0 0 2.33-3.518l-.181-13.679a3.07 3.07 0 0 0-3.028 3.111z" fill="#1d2445"/><path d="m98.789 37.925-2.571.63a1.095 1.095 0 0 1-1.355-1.049l-.041-3.118 2.472-.033a2.397 2.397 0 0 1 2.429 2.365 1.228 1.228 0 0 1-.934 1.205z" fill="#99644c"/><path d="M127.411 74.142c10.075-1.194 14.941 4.144 15.561 9.38.44 3.712-1.116 7.593-5.173 10.224l.024.199c4.43 1.088 8.566 4.227 9.217 9.728.927 7.821-5.007 13.901-15.015 15.087-10.936 1.296-16.704-4.271-17.395-10.104-.612-5.169 1.945-9.102 6.408-11.714l-.016-.132c-4.435-1.693-6.905-4.962-7.353-8.74-.864-7.29 5.125-12.906 13.674-13.919zm4.188 37.611c3.513-.416 5.623-3.019 5.262-6.067-.448-3.778-3.564-5.694-7.601-6.291-3.204 1.321-4.843 3.934-4.474 7.05.303 3.123 3.034 5.756 6.747 5.316zm-3.843-30.729c-3.447.408-4.895 2.932-4.581 5.584.346 2.916 3.15 4.466 6.722 5.118 2.241-.937 4.045-3.302 3.731-5.953-.322-2.717-2.161-5.188-5.806-4.756z" fill="#d4e7ff"/><path d="m101.584 147.833-1 21.5 73.5-6.5-1-29z" fill="#2888ff"/><path d="M218.683 118.7a30.425 30.425 0 0 1 3.033 8.69c.449 2.434-1.404 4.89-1.547 7.315-.281 4.784.316 9.449-2.095 13.591a30.294 30.294 0 0 1-12.101 11.623 30.45 30.45 0 0 1-8.383 2.972c-1.956.382-3.925-1.432-5.882-1.435-2.085-.003-4.156 1.782-6.18 1.364-8.594-1.792-16.353-7.248-20.774-15.611-7.87-14.888-2.187-33.343 12.71-41.218 14.889-7.871 33.349-2.178 41.219 12.709z" fill="#93c3ff"/><path d="M173.32 129.599c-.016.246-.022.489-.035.733 5.226-.927 10.943-.943 16.8.143.193.036.38.079.572.117.934-6.134 2.972-11.721 5.798-16.393-7.059-1.196-13.895-.812-19.878.853-1.761 4.401-2.909 9.316-3.257 14.547zm48.396-2.209a30.577 30.577 0 0 1-3.642 20.906c-2.447-4.158-6.138-7.931-10.748-10.98.772-6.392 2.733-12.247 5.548-17.151 3.442 2.06 6.423 4.511 8.842 7.225zm-24.125 35.501c-4.04.789-8.138.739-12.062-.071-4.786-3.94-8.487-9.913-10.539-17.006 2.605.048 5.263.306 7.958.804a49.951 49.951 0 0 1 8.373 2.338c1.261 5.317 3.418 10.081 6.27 13.935z" fill="#2888ff"/><path d="m219.404 134.161-17.171-21.679-6.863-10.016 6.237-16.166 8.112 7.238a20.018 20.018 0 0 1 4.808 6.462l13.485 27.001z" fill="#99644c"/><path d="m228.563 162.617.011.001a.49.49 0 0 0 .598-.339l2.391-8.613a6.496 6.496 0 0 0 .142-2.849l-.681-4.163 1.447-2.187c.51-.761.712-1.688.577-2.59l-1.143-7.805-.01-.064c-.031-.275-.584-1.669-.584-1.669l-9.152-16.607.569 11.294c-2.532 1.741-2.85 3.35-3.292 5.499l-.768 3.778a7.797 7.797 0 0 0 .383 4.09c.311.798.504 1.634.577 2.49.234 2.417.679 6.215.679 6.215.127.63.644 1.096 1.274 1.167l.139.016a1.427 1.427 0 0 0 1.478-1.369c.039-.793.321-5.514.437-6.987l.001-.011a.572.572 0 0 1 .429-.494.536.536 0 0 1 .588.242l.968 1.579 2.683 9.178-1.047 8.122a1.93 1.93 0 0 0 1.274 2.066zm-74.029-99.663 30.773 31.543 11.61 9.502 11.977-10.069-39.347-47.218z" fill="#99644c"/><path d="m169.547 46.458 16.297 18.159-20.874 17.819-17.31-29.019z" fill="#2888ff"/></svg></g></svg>