<svg xmlns="http://www.w3.org/2000/svg"  viewBox="0 0 72 72" width="64px" height="64px"><path d="M 38 9 C 34.691 9 32 11.691 32 15 C 32 18.309 34.691 21 38 21 C 41.309 21 44 18.309 44 15 C 44 11.691 41.309 9 38 9 z M 40.259766 24.011719 C 40.066144 24.001358 39.868844 24.003844 39.667969 24.019531 L 33.466797 24.505859 C 33.061788 24.53763 32.674577 24.637775 32.310547 24.787109 L 25.798828 26.507812 C 25.506828 26.586812 25.229375 26.718484 24.984375 26.896484 L 20.035156 30.474609 C 18.915156 31.282609 18.665609 32.845844 19.474609 33.964844 C 19.963609 34.641844 20.726953 35 21.501953 35 C 22.009953 35 22.521797 34.845391 22.966797 34.525391 L 27.148438 31.658203 L 28.423828 31.410156 L 26.648438 35.912109 L 23.292969 42.748047 C 22.552969 44.231047 23.153766 46.032438 24.634766 46.773438 C 25.065766 46.988437 25.523609 47.089844 25.974609 47.089844 C 27.074609 47.089844 28.135156 46.482641 28.660156 45.431641 L 31.646484 40.90625 L 32.888672 41.337891 L 30.082031 55.302734 C 29.698031 56.914734 30.691734 58.532969 32.302734 58.917969 C 32.536734 58.973969 32.772906 59 33.003906 59 C 34.359906 59 35.588969 58.074266 35.917969 56.697266 L 39.527344 41.585938 L 43.445312 31.578125 L 46.75 32.804688 C 46.936 32.873688 47.128219 32.922172 47.324219 32.951172 L 54.130859 33.972656 C 54.255859 33.991656 54.380906 34 54.503906 34 C 55.846906 34 57.006953 32.916609 57.001953 31.474609 C 56.998953 30.224609 55.995766 29.196719 54.759766 29.011719 L 48.619141 28.091797 L 42.650391 24.902344 C 41.984382 24.392123 41.167841 24.060309 40.259766 24.011719 z M 19.5 49 C 16.466 49 14 51.466 14 54.5 C 14 57.534 16.466 60 19.5 60 C 22.534 60 25 57.534 25 54.5 C 25 51.466 22.534 49 19.5 49 z"/></svg>