<svg xmlns="http://www.w3.org/2000/svg"  viewBox="0 0 50 50" width="50px" height="50px"><path d="M 37 5.3476562 C 36.947 5.3686562 36.893891 5.3852031 36.837891 5.4082031 C 35.771891 5.8132031 34.896141 6.5025156 34.244141 7.3535156 L 34.726562 7.5117188 L 35.205078 9.7695312 L 33.490234 11.314453 L 33.015625 11.160156 C 33.023625 11.446156 33.039844 11.735438 33.089844 12.023438 C 33.131844 12.305438 33.193109 12.576422 33.287109 12.857422 C 33.470109 13.420422 33.740547 13.932438 34.060547 14.398438 L 34.357422 13.988281 L 36.654297 14.228516 L 37.59375 16.339844 L 37.292969 16.753906 C 38.370969 17.071906 39.548172 17.086094 40.701172 16.746094 L 40.404297 16.339844 L 41.34375 14.228516 L 43.640625 13.988281 L 43.927734 14.384766 C 44.411734 13.677766 44.758297 12.884203 44.904297 12.033203 C 44.955297 11.745203 44.979281 11.452203 44.988281 11.158203 L 44.509766 11.3125 L 42.794922 9.7675781 L 43.273438 7.5097656 L 43.767578 7.3496094 C 43.092578 6.4716094 42.188922 5.8062031 41.169922 5.4082031 C 41.114922 5.3872031 41.055 5.3774219 41 5.3574219 L 41 5.8574219 L 39 7.0117188 L 37 5.8574219 L 37 5.3476562 z M 24 6 A 1.0001 1.0001 0 1 0 24 8 L 29 8 A 1.0001 1.0001 0 1 0 29 6 L 24 6 z M 16 7 A 1.0001 1.0001 0 1 0 16 9 L 19 9 A 1.0001 1.0001 0 1 0 19 7 L 16 7 z M 39 9 L 41 10.527344 L 40.236328 13 L 37.763672 13 L 37 10.527344 L 39 9 z M 19 11 A 1.0001 1.0001 0 1 0 19 13 L 29 13 A 1.0001 1.0001 0 1 0 29 11 L 19 11 z M 6.5878906 12.265625 C 6.4826719 12.270916 6.3759062 12.28625 6.2695312 12.3125 C 5.3985312 12.5225 4.8415 13.424641 5.0625 14.306641 L 5.921875 23.035156 C 6.078875 23.654156 6.5404063 24.178906 7.1914062 24.378906 L 7.3261719 24.410156 L 13.916016 26.960938 L 5 35 L 5 45 L 7.796875 45.029297 L 22.148438 33.880859 C 22.631438 33.471859 23.177391 33.145297 23.775391 32.904297 C 24.310391 32.694297 24.940875 32.464594 25.171875 32.433594 L 35.503906 31.015625 L 35.650391 30.994141 C 35.923391 30.963141 36.196734 30.858922 36.427734 30.669922 L 43.337891 25.494141 C 44.019891 24.980141 44.208094 24.014297 43.746094 23.279297 C 43.242094 22.502297 42.224266 22.282625 41.447266 22.765625 L 34.654297 27.101562 L 26.810547 27.751953 C 26.464547 27.772953 26.117484 27.772953 25.771484 27.751953 C 25.729484 27.751953 25.678719 27.742187 25.636719 27.742188 C 23.000719 27.739188 22.000828 26.000359 19.923828 24.568359 C 18.999828 23.907359 17.329203 23.098656 16.783203 22.972656 L 10 21 L 8.2441406 13.404297 C 8.0052656 12.687672 7.3244219 12.228588 6.5878906 12.265625 z M 25.578125 18.287109 C 24.369375 18.287109 23.160234 18.724609 22.240234 19.599609 C 21.310234 20.479609 20.849609 21.629297 20.849609 22.779297 C 20.929609 22.829297 21.009844 22.889453 21.089844 22.939453 C 21.729844 23.379453 22.289297 23.859063 22.779297 24.289062 C 23.169297 24.619062 23.489062 24.889375 23.789062 25.109375 C 23.809062 25.119375 23.820078 25.120859 23.830078 25.130859 C 24.420078 25.550859 24.910859 25.740234 25.630859 25.740234 L 25.740234 25.740234 L 25.890625 25.75 C 26.030625 25.76 26.159063 25.759766 26.289062 25.759766 C 26.419062 25.759766 26.549453 25.76 26.689453 25.75 L 29.300781 25.539062 C 30.750781 23.779063 30.620156 21.219609 28.910156 19.599609 C 27.995156 18.724609 26.786875 18.287109 25.578125 18.287109 z"/></svg>