<svg xmlns="http://www.w3.org/2000/svg"  viewBox="0 0 100 100" width="100px" height="100px" baseProfile="basic"><circle cx="50" cy="50" r="36.5" fill="#f0ffd2"/><path fill="none" stroke="#231f20" stroke-linecap="round" stroke-linejoin="round" stroke-miterlimit="10" d="M67.5,50.612 c2.517-0.713,4.719-1.827,7.731-3.134c5.244-2.275,6.72,3.257,6.072,5.038"/><path fill="none" stroke="#231f20" stroke-linecap="round" stroke-linejoin="round" stroke-miterlimit="10" d="M13.143,58.06 c0,0,3.108-2.005,8.106-4.063"/><path fill="none" stroke="#231f20" stroke-linecap="round" stroke-linejoin="round" stroke-miterlimit="10" d="M84.679,60.46 c4.093-5.473-1.869-9.132-4.747-7.45c0,0-9.67,5.03-16.258,5.725"/><path fill="none" stroke="#231f20" stroke-linecap="round" stroke-linejoin="round" stroke-miterlimit="10" d="M65,65.998 c0,0,7.77-0.992,13.859-4.862c5.921-3.763,11.593,2.722,5.131,7.441c-5.925,4.327-13.215,7.726-33.214,10.584 c-18.649,2.665-22.26,5.178-25.056,7.087"/><path fill="none" stroke="#231f20" stroke-linecap="round" stroke-linejoin="round" stroke-miterlimit="10" d="M36.491,76.393 c0,0,10.954-1.106,18.281-6.196c7.327-5.09,2.063-11.289-2.595-8.999c-2.515,1.236-4.937,1.874-8.419-0.452 c-5.193-4.032-9.27-3.532-9.27-3.532S25.5,57.501,22,59.626"/><path fill="none" stroke="#231f20" stroke-linecap="round" stroke-linejoin="round" stroke-miterlimit="10" d="M25.5,58.513 c-4.931-4.732-8-11.388-8-18.761c0-14.359,11.641-26,26-26s26,11.641,26,26c0,9.258-4.839,17.385-12.125,21.992"/><polygon fill="none" stroke="#231f20" stroke-linecap="round" stroke-linejoin="round" stroke-miterlimit="10" points="43.429,29.217 33.359,36.534 37.205,48.372 49.653,48.372 53.5,36.534"/><polyline fill="none" stroke="#231f20" stroke-linecap="round" stroke-linejoin="round" stroke-miterlimit="10" points="35.125,15.361 43.429,21.395 51.875,15.258"/><polyline fill="none" stroke="#231f20" stroke-linecap="round" stroke-linejoin="round" stroke-miterlimit="10" points="17.846,40.358 26.15,34.325 22.924,24.396"/><polyline fill="none" stroke="#231f20" stroke-linecap="round" stroke-linejoin="round" stroke-miterlimit="10" points="33.068,57.251 32.157,54.445 22.125,54.445"/><polyline fill="none" stroke="#231f20" stroke-linecap="round" stroke-linejoin="round" stroke-miterlimit="10" points="64.5,54.751 54.235,54.751 52.164,61.126"/><polyline fill="none" stroke="#231f20" stroke-linecap="round" stroke-linejoin="round" stroke-miterlimit="10" points="64.287,25.379 61.115,35.142 69.561,41.278"/><line x1="43.429" x2="43.429" y1="29.217" y2="21.395" fill="none" stroke="#231f20" stroke-linecap="round" stroke-linejoin="round" stroke-miterlimit="10"/><line x1="26.15" x2="33.359" y1="34.325" y2="36.534" fill="none" stroke="#231f20" stroke-linecap="round" stroke-linejoin="round" stroke-miterlimit="10"/><line x1="53.5" x2="61.115" y1="36.534" y2="35.142" fill="none" stroke="#231f20" stroke-linecap="round" stroke-linejoin="round" stroke-miterlimit="10"/><line x1="32.157" x2="37.205" y1="54.445" y2="48.372" fill="none" stroke="#231f20" stroke-linecap="round" stroke-linejoin="round" stroke-miterlimit="10"/><line x1="54.235" x2="49.653" y1="54.751" y2="48.372" fill="none" stroke="#231f20" stroke-linecap="round" stroke-linejoin="round" stroke-miterlimit="10"/></svg>